<?xml version="1.0" standalone="no"?>
<!DOCTYPE svg PUBLIC "-//W3C//DTD SVG 20010904//EN"
 "http://www.w3.org/TR/2001/REC-SVG-20010904/DTD/svg10.dtd">
<svg version="1.0" xmlns="http://www.w3.org/2000/svg"
 width="960.000000pt" height="960.000000pt" viewBox="0 0 960.000000 960.000000"
 preserveAspectRatio="xMidYMid meet">
<metadata>
Created by potrace 1.14, written by Peter Selinger 2001-2017
</metadata>
<g transform="translate(0.000000,960.000000) scale(0.100000,-0.100000)"
fill="#000000" stroke="none">
<path d="M2496 9265 c-22 -8 -54 -29 -72 -47 -27 -27 -156 -242 -322 -537 -14
-25 -38 -67 -53 -93 -16 -27 -29 -51 -29 -53 0 -2 -20 -36 -43 -77 -39 -64
-83 -165 -92 -208 -2 -8 -8 -34 -13 -57 -21 -91 -2 -366 28 -408 4 -5 10 -21
13 -35 18 -74 179 -260 281 -324 114 -72 190 -95 333 -102 215 -10 364 49 522
207 111 110 164 202 197 340 18 73 12 293 -10 374 -2 6 -6 24 -11 40 -11 41
-54 125 -148 290 -44 77 -93 165 -110 195 -16 30 -38 67 -49 82 -10 14 -18 28
-18 31 0 2 -22 42 -49 88 -28 46 -62 109 -78 139 -39 75 -108 145 -158 159
-51 14 -71 13 -119 -4z"/>
<path d="M4724 9260 c-21 -9 -51 -31 -66 -47 -23 -23 -156 -249 -316 -533 -14
-25 -58 -103 -99 -175 -65 -115 -108 -208 -118 -255 -2 -8 -8 -34 -13 -57 -5
-23 -8 -101 -7 -175 4 -223 53 -337 214 -496 139 -137 269 -193 461 -197 219
-6 354 50 515 211 82 83 136 163 165 250 30 87 32 99 36 235 5 201 -19 278
-170 539 -49 85 -102 180 -119 210 -16 30 -33 60 -37 65 -5 6 -20 33 -36 60
-15 28 -36 64 -46 80 -10 17 -21 37 -25 45 -4 8 -24 43 -45 78 -21 34 -38 66
-38 70 0 12 -71 78 -100 92 -39 20 -112 20 -156 0z"/>
<path d="M6964 9260 c-21 -9 -51 -30 -66 -46 -32 -34 -434 -733 -490 -852 -52
-110 -68 -197 -64 -352 4 -145 25 -227 86 -330 42 -72 163 -200 234 -250 202
-138 512 -145 724 -16 128 78 271 248 312 371 31 93 32 101 36 236 5 202 -18
273 -176 549 -45 80 -96 170 -113 200 -16 30 -38 67 -49 82 -10 14 -18 28 -18
31 0 14 -175 306 -198 330 -58 61 -146 80 -218 47z"/>
<path d="M2423 6745 c-98 -21 -188 -69 -257 -139 -70 -70 -107 -129 -139 -218
-21 -61 -22 -80 -25 -545 -2 -366 -6 -483 -15 -484 -7 -1 -25 -2 -42 -4 -16
-1 -56 -5 -87 -9 -32 -4 -60 -7 -63 -7 -2 0 -19 -5 -37 -10 -18 -6 -40 -12
-49 -14 -160 -35 -355 -150 -494 -290 -174 -174 -270 -360 -315 -607 -17 -93
-19 -166 -20 -763 l-1 -661 90 -42 c243 -115 452 -135 692 -68 115 32 217 76
311 133 88 53 305 216 386 290 72 66 121 87 207 87 58 1 77 -3 115 -26 25 -14
56 -38 69 -52 14 -14 29 -26 34 -26 5 0 32 -22 61 -49 206 -198 395 -310 626
-371 212 -57 488 -14 705 108 79 44 226 156 319 243 41 38 77 69 81 69 4 0 25
16 47 36 53 47 100 66 173 69 70 3 138 -24 192 -77 18 -18 33 -28 33 -23 0 4
33 -23 73 -61 344 -331 696 -449 1064 -360 186 46 381 164 598 363 106 97 157
133 214 149 94 28 207 -1 269 -68 48 -52 55 -58 162 -140 196 -151 303 -214
452 -266 280 -99 524 -88 776 35 l93 45 -4 712 c-4 764 -4 755 -59 910 -66
188 -197 364 -374 502 -178 139 -382 217 -623 239 -29 2 -55 6 -57 8 -2 2 -4
208 -5 458 -1 336 -4 470 -14 516 -44 203 -198 358 -407 407 -89 21 -234 15
-318 -14 -116 -41 -232 -136 -295 -245 -30 -51 -71 -165 -79 -220 -3 -22 -5
-235 -6 -472 l0 -433 -560 0 -560 0 -1 448 c0 246 -3 461 -5 477 -18 124 -68
229 -149 310 -109 109 -218 155 -380 161 -222 7 -405 -85 -504 -254 -76 -129
-75 -119 -79 -659 l-3 -483 -560 0 -559 0 0 443 c-1 243 -3 460 -6 482 -28
224 -184 400 -405 458 -69 18 -207 18 -286 2z"/>
<path d="M2400 2633 c-80 -53 -197 -122 -260 -154 -163 -81 -392 -152 -560
-174 -30 -4 -64 -9 -75 -12 -47 -10 -256 -9 -330 2 -119 19 -138 23 -220 49
l-75 24 0 -788 c1 -760 2 -791 21 -862 11 -40 32 -95 47 -123 41 -75 147 -177
224 -213 138 -67 -154 -62 3628 -62 3779 0 3490 -4 3627 61 78 37 176 131 221
210 18 32 41 91 52 134 19 73 20 115 20 857 l0 780 -22 -5 c-13 -3 -66 -16
-119 -30 -129 -34 -191 -42 -334 -41 -249 2 -529 68 -760 178 -60 29 -181 101
-269 160 -87 59 -163 105 -170 103 -6 -3 -61 -41 -122 -85 -188 -135 -270
-181 -416 -236 -106 -40 -296 -89 -397 -102 -19 -2 -48 -7 -65 -10 -67 -12
-165 -11 -256 1 -134 19 -153 23 -260 50 -250 63 -424 150 -655 330 -38 30
-73 55 -77 55 -4 0 -42 -28 -85 -62 -213 -170 -372 -250 -625 -317 -113 -30
-152 -38 -218 -47 -19 -2 -47 -7 -62 -10 -75 -15 -185 -12 -328 12 -19 3 -46
7 -60 9 -54 8 -189 44 -278 74 -175 59 -319 140 -507 286 -38 30 -74 55 -80
55 -5 -1 -75 -44 -155 -97z"/>
</g>
</svg>
